<svg width="90" height="90" viewBox="0 0 90 90" fill="none" xmlns="http://www.w3.org/2000/svg">
<path d="M88.981 37.4796C88.981 37.3384 88.981 37.1972 88.981 37.0559C87.4275 28.4408 83.3317 20.2493 76.6938 13.7526C70.0559 7.1147 61.8644 3.01896 53.2493 1.46541C53.108 1.46541 52.9668 1.46541 52.8256 1.46541C38.9848 -0.935541 24.1554 3.16019 13.563 13.7526C2.82937 24.4863 -1.26636 39.3156 1.27582 53.2976C1.27582 53.2976 1.27582 53.2976 1.27582 53.4389C2.82938 62.054 6.92511 70.2455 13.563 76.8834C22.3194 85.6398 33.618 89.8768 45.0578 89.8768C56.4976 89.8768 67.9374 85.4986 76.5526 76.8834C87.2862 66.1498 91.382 51.3204 88.981 37.4796ZM53.5317 4.29005C60.8758 5.84361 67.7962 9.23318 73.5867 14.7412L57.345 30.9829C50.8483 23.6389 49.436 13.1877 53.5317 4.29005ZM75.564 16.5773C81.072 22.3678 84.4616 29.2882 86.0151 36.6322C77.1175 40.8692 66.6663 39.3156 59.3223 32.819L75.564 16.5773ZM50.8483 3.86635C46.4701 13.6114 48.3062 24.91 55.6502 32.9602L45.199 43.4114L16.3877 14.7412C24.4379 7.25593 34.7479 3.44266 45.0578 3.44266C47.0351 3.44266 48.8711 3.58389 50.8483 3.86635ZM14.5517 16.5773L43.2218 45.2474L32.4881 55.981C24.5791 48.7782 13.4218 46.9422 3.818 51.0379C1.84075 39.0332 5.51279 26.181 14.5517 16.5773ZM36.4426 86.2048C29.2398 84.6512 22.3194 81.2616 16.5289 75.7536L32.4881 59.7943C38.8436 67.1384 40.3972 77.3071 36.4426 86.2048ZM4.10047 53.8626C12.8569 49.7668 23.0256 51.3204 30.3697 57.9583L14.5517 73.9175C9.0436 68.127 5.65402 61.2066 4.10047 53.8626ZM39.1261 86.6284C43.2218 76.8834 41.3858 65.7261 34.1829 57.9583L44.9166 47.2247L73.5867 75.8948C64.1242 84.7924 51.272 88.4645 39.1261 86.6284ZM75.564 73.9175L46.8938 45.2474L57.345 34.7962C62.4294 39.4569 68.926 41.8578 75.4227 41.8578C79.0948 41.8578 82.7668 41.1517 86.2976 39.5981C88.1336 51.6028 84.6028 64.3138 75.564 73.9175Z" fill="#231F20"/>
</svg>
