<svg width="175" height="197" viewBox="0 0 175 197" fill="none" xmlns="http://www.w3.org/2000/svg">
<mask id="path-1-inside-1_11_13" fill="white">
<path d="M79.5657 155.626L89.894 140.494C91.8391 137.627 93.1075 134.353 93.6012 130.919L97.0733 105.975H64L65.0889 98.2026H98.1622L99.8097 86.5588C100.349 82.649 99.8621 78.6658 98.3977 75.0031L93.66 62.9747L99.1626 56L105.548 72.0772C107.518 77.0045 108.168 82.3644 107.431 87.6227L105.96 98.2026H131L129.912 105.975H104.871L101.222 131.983C100.591 136.61 98.8877 141.023 96.2495 144.868L85.9509 160L79.5657 155.626Z"/>
</mask>
<path d="M79.5657 155.626L71.3063 149.988L65.6783 158.233L73.914 163.875L79.5657 155.626ZM89.894 140.494L98.1534 146.132L98.1611 146.12L98.1689 146.109L89.894 140.494ZM93.6012 130.919L103.499 132.342L103.503 132.32L103.506 132.298L93.6012 130.919ZM97.0733 105.975L106.978 107.354L108.562 95.9754H97.0733V105.975ZM64 105.975L54.0967 104.588L52.5014 115.975H64V105.975ZM65.0889 98.2026V88.2026H56.3922L55.1856 96.8153L65.0889 98.2026ZM98.1622 98.2026V108.203H106.847L108.064 99.6036L98.1622 98.2026ZM99.8097 86.5588L109.711 87.9598L109.714 87.9424L109.716 87.9249L99.8097 86.5588ZM98.3977 75.0031L89.0934 78.6678L89.1028 78.6917L89.1124 78.7156L98.3977 75.0031ZM93.66 62.9747L85.8091 56.7809L82.2498 61.2926L84.3557 66.6394L93.66 62.9747ZM99.1626 56L108.456 52.3089L102.054 36.1893L91.3117 49.8062L99.1626 56ZM105.548 72.0772L96.2539 75.7683L96.2584 75.7796L96.2629 75.7909L105.548 72.0772ZM107.431 87.6227L97.5276 86.2349L97.5261 86.2456L107.431 87.6227ZM105.96 98.2026L96.0551 96.8255L94.4733 108.203H105.96V98.2026ZM131 98.2026L140.903 99.5895L142.498 88.2026H131V98.2026ZM129.912 105.975V115.975H138.609L139.815 107.362L129.912 105.975ZM104.871 105.975V95.9754H96.176L94.9679 104.586L104.871 105.975ZM101.222 131.983L91.3192 130.594L91.3165 130.613L91.3139 130.632L101.222 131.983ZM96.2495 144.868L88.0036 139.211L87.9931 139.227L87.9826 139.242L96.2495 144.868ZM85.9509 160L80.2992 168.25L88.5741 173.919L94.2178 165.627L85.9509 160ZM87.8251 161.263L98.1534 146.132L81.6346 134.857L71.3063 149.988L87.8251 161.263ZM98.1689 146.109C100.967 141.986 102.79 137.277 103.499 132.342L83.703 129.496C83.4251 131.428 82.7115 133.269 81.6191 134.879L98.1689 146.109ZM103.506 132.298L106.978 107.354L87.1688 104.597L83.6967 129.54L103.506 132.298ZM97.0733 95.9754H64V115.975H97.0733V95.9754ZM73.9033 107.363L74.9922 99.59L55.1856 96.8153L54.0967 104.588L73.9033 107.363ZM65.0889 108.203H98.1622V88.2026H65.0889V108.203ZM108.064 99.6036L109.711 87.9598L89.9084 85.1578L88.2608 96.8016L108.064 99.6036ZM109.716 87.9249C110.492 82.2979 109.792 76.5644 107.683 71.2905L89.1124 78.7156C89.9326 80.7671 90.2059 83.0001 89.9035 85.1927L109.716 87.9249ZM107.702 71.3384L102.964 59.31L84.3557 66.6394L89.0934 78.6678L107.702 71.3384ZM101.511 69.1685L107.013 62.1938L91.3117 49.8062L85.8091 56.7809L101.511 69.1685ZM89.8687 59.6911L96.2539 75.7683L114.842 68.3861L108.456 52.3089L89.8687 59.6911ZM96.2629 75.7909C97.5862 79.0995 98.0228 82.7007 97.5276 86.2349L117.334 89.0105C118.313 82.028 117.451 74.9095 114.833 68.3636L96.2629 75.7909ZM97.5261 86.2456L96.0551 96.8255L115.865 99.5797L117.336 88.9998L97.5261 86.2456ZM105.96 108.203H131V88.2026H105.96V108.203ZM121.097 96.8158L120.008 104.588L139.815 107.362L140.903 99.5895L121.097 96.8158ZM129.912 95.9754H104.871V115.975H129.912V95.9754ZM94.9679 104.586L91.3192 130.594L111.125 133.372L114.774 107.365L94.9679 104.586ZM91.3139 130.632C90.8936 133.714 89.7587 136.653 88.0036 139.211L104.495 150.526C108.017 145.393 110.289 139.505 111.131 133.334L91.3139 130.632ZM87.9826 139.242L77.6839 154.373L94.2178 165.627L104.516 150.495L87.9826 139.242ZM91.6025 151.75L85.2173 147.376L73.914 163.875L80.2992 168.25L91.6025 151.75Z" fill="#6E6E6E" mask="url(#path-1-inside-1_11_13)"/>
<path d="M63.413 93.7292L62.5146 94.8145L62.315 96.2093L55.7561 142.045L55.3143 145.133L57.8931 146.887L93.6119 171.189L90.6594 192H72.0311L23.5395 159.987L35.951 72.0017L36.7548 66.3033H31H5.71167L8.17112 47.8758H35.0294H39.3716L39.98 43.5765L41.7234 31.2589L63.4416 5H70.4998H75.0712L69.8429 42.1796L69.0419 47.8758H74.7942H101.37L63.413 93.7292Z" stroke="#6E6E6E" stroke-width="10"/>
<mask id="path-4-inside-2_11_13" fill="white">
<path d="M127.412 107.614L114.794 197H126.559C132.283 197.007 137.816 194.952 142.14 191.215C146.464 187.477 149.287 182.309 150.088 176.661L175 0H147.5L112 42.8758H136.618L128.912 96.9175"/>
</mask>
<path d="M114.794 197L104.892 195.602L103.283 207H114.794V197ZM126.559 197L126.571 187H126.559V197ZM142.14 191.215L148.68 198.78L148.68 198.78L142.14 191.215ZM150.088 176.661L159.989 178.066L159.99 178.058L150.088 176.661ZM175 0L184.902 1.39633L186.509 -10H175V0ZM147.5 0V-10H142.797L139.798 -6.37746L147.5 0ZM112 42.8758L104.298 36.4984L90.7374 52.8758H112V42.8758ZM136.618 42.8758L146.518 44.2874L148.145 32.8758H136.618V42.8758ZM117.51 106.217L104.892 195.602L124.696 198.398L137.314 109.012L117.51 106.217ZM114.794 207H126.559V187H114.794V207ZM126.547 207C134.673 207.01 142.533 204.093 148.68 198.78L135.601 183.649C133.1 185.811 129.893 187.004 126.571 187L126.547 207ZM148.68 198.78C154.827 193.466 158.847 186.111 159.989 178.066L140.187 175.256C139.726 178.506 138.101 181.488 135.601 183.649L148.68 198.78ZM159.99 178.058L184.902 1.39633L165.098 -1.39633L140.186 175.265L159.99 178.058ZM175 -10H147.5V10H175V-10ZM139.798 -6.37746L104.298 36.4984L119.702 49.2533L155.203 6.37746L139.798 -6.37746ZM112 52.8758H136.618V32.8758H112V52.8758ZM126.718 41.4642L119.012 95.5059L138.812 98.3291L146.518 44.2874L126.718 41.4642Z" fill="#6E6E6E" mask="url(#path-4-inside-2_11_13)"/>
</svg>
