<svg width="34" height="40" viewBox="0 0 34 40" fill="none" xmlns="http://www.w3.org/2000/svg">
<path d="M15.5103 31.0904L17.5055 28.18C17.8813 27.6286 18.1263 26.9988 18.2216 26.3384L18.8924 21.5408H12.5033L12.7136 20.0458H19.1027L19.421 17.8063C19.5252 17.0543 19.4311 16.2882 19.1482 15.5837L18.233 13.2702L19.296 11.9287L20.5295 15.0209C20.9102 15.9686 21.0356 16.9995 20.8933 18.0109L20.6091 20.0458H25.4464L25.2361 21.5408H20.3987L19.6939 26.543C19.572 27.4329 19.2429 28.2817 18.7333 29.0213L16.7438 31.9317L15.5103 31.0904Z" fill="#DC5F2E"/>
<path d="M13.1568 19.7561L21.8026 9.27435H14.612L15.7773 0.958252H13.782H11.9631L7.30199 6.6141L6.92683 9.27435H0.890132L0.15686 14.7881H6.14808L3.66406 32.4605L13.7878 39.1679H18.5171L19.2901 33.6997L11.8892 28.6463L13.1568 19.7561Z" fill="#1B3158"/>
<path d="M24.7926 21.8309L22.354 39.1679H24.6277C25.734 39.1692 26.8034 38.7707 27.6391 38.0458C28.4747 37.3209 29.0202 36.3184 29.1751 35.2231L33.9896 0.958252H28.6749L21.814 9.27435H26.5717L25.0824 19.7561" fill="#DC5F2E"/>
</svg>
